<svg xmlns="http://www.w3.org/2000/svg" viewBox="0 0 184 93.44"><path d="M182.21,63.27a9.9,9.9,0,0,0-5.88-13.68l-.32-.1a9.91,9.91,0,0,0,6.68-13.56,32.58,32.58,0,0,0-8.4-11.56,9.93,9.93,0,0,0-6.54-2.47h0a9.76,9.76,0,0,0-8.36,4.65V10.41a9.87,9.87,0,0,0-9.89-9.9h-.06a46.17,46.17,0,0,0-9.54,1.55,49.07,49.07,0,0,0-8.4,3.09A9.9,9.9,0,0,0,127.16,19l8.07,14a9.91,9.91,0,0,0-14,5.59q-.15.44-.29.89a17.76,17.76,0,0,0-4.74-3.25,19.6,19.6,0,0,0-8.36-1.87,18.82,18.82,0,0,0-6.36,1.09A10.65,10.65,0,0,0,89.81,36.6V34.65a10.65,10.65,0,1,0-21.3,0v5.88A19.56,19.56,0,0,0,54.32,34.6a20.07,20.07,0,0,0-12.48,4.51,10.75,10.75,0,0,0-19,3.1l-.45,1.46-1.46-3a10.87,10.87,0,0,0-9.64-6.06,10.85,10.85,0,0,0-4.74,1.12A10.75,10.75,0,0,0,1.6,50.09L11.79,71a10.24,10.24,0,0,0-6.2,6.9,10.35,10.35,0,0,0,1.57,9c1.49,2,4.43,4.47,10,4.6h.6c7.76,0,13.43-3.84,15.57-10.52.88-2.75,1.9-6,2.95-9.34.19.43.39.84.61,1.25,3.36,6.37,9.5,9.88,17.28,9.88,7.33,0,12.48-2.48,15.66-5.7a10.63,10.63,0,0,0,16.05,3.24v1.95a10.65,10.65,0,0,0,21.29.28h.47c1.84,0,8.66-.35,13.38-5.38a17.94,17.94,0,0,0,2.6-3.38,9.14,9.14,0,0,0,8,.38,9.88,9.88,0,0,0,2.18,2.05A33.24,33.24,0,0,0,147,81.6a9.9,9.9,0,0,0,11.54-9.42v-.34l.18.29a9.9,9.9,0,0,0,14.7,2.39A33.24,33.24,0,0,0,182.21,63.27Z" style="fill:#fff"/><path d="M177.54,49.52A10.31,10.31,0,0,0,183,44.32a10.58,10.58,0,0,0,.14-8.59A33.08,33.08,0,0,0,174.62,24a10.44,10.44,0,0,0-6.87-2.6h-.05A10.14,10.14,0,0,0,159.85,25V10.41A10.38,10.38,0,0,0,149.46,0h-.06a46.86,46.86,0,0,0-9.67,1.57,49.59,49.59,0,0,0-8.49,3.13,10.4,10.4,0,0,0-4.52,14.59L134,31.93a10.67,10.67,0,0,0-3.43-.58,10.39,10.39,0,0,0-9.86,7.08l0,.14a18.53,18.53,0,0,0-4.28-2.8,20.11,20.11,0,0,0-8.57-1.92,19.28,19.28,0,0,0-6.32,1,11.16,11.16,0,0,0-11.18.69v-.95a11.16,11.16,0,1,0-22.31,0v4.67a20.26,20.26,0,0,0-13.68-5.23,20.57,20.57,0,0,0-12.39,4.29,11.13,11.13,0,0,0-5.49-3.76,11.25,11.25,0,0,0-14.08,7.43l-.07.24-.9-1.85a11.38,11.38,0,0,0-10.09-6.35,11.36,11.36,0,0,0-5,1.17A11.26,11.26,0,0,0,1.15,50.32l10,20.4a10.72,10.72,0,0,0-6,7,10.86,10.86,0,0,0,1.65,9.48c1.56,2.12,4.62,4.67,10.36,4.81h.61c8,0,13.85-4,16.06-10.88.72-2.24,1.58-5,2.56-8.11l.06.11C39.85,79.7,46.14,83.3,54.12,83.3s12.82-2.83,15.55-5.39a11.14,11.14,0,0,0,15.66,3.42v.95a11.16,11.16,0,0,0,22.28.8c2,0,8.92-.41,13.74-5.54l.08-.08a18.32,18.32,0,0,0,2.34-3,9.65,9.65,0,0,0,7.69.32,10.36,10.36,0,0,0,2,1.86,33.75,33.75,0,0,0,13.43,5.43,10.47,10.47,0,0,0,1.73.14A10.36,10.36,0,0,0,159,73.32a10.41,10.41,0,0,0,14.81,1.59,33.75,33.75,0,0,0,8.91-11.42,10.41,10.41,0,0,0-5.13-14ZM167.13,76.78a9.85,9.85,0,0,1-8.4-4.65l-.18-.29v.34A9.9,9.9,0,0,1,147,81.6a33.24,33.24,0,0,1-13.22-5.35,9.88,9.88,0,0,1-2.18-2.05,9.14,9.14,0,0,1-8-.38A17.94,17.94,0,0,1,121,77.2c-4.72,5-11.54,5.38-13.38,5.38h-.47a10.65,10.65,0,0,1-21.29-.28V80.34A10.63,10.63,0,0,1,69.79,77.1c-3.18,3.22-8.33,5.7-15.66,5.7-7.78,0-13.92-3.51-17.28-9.88-.21-.41-.42-.83-.61-1.25-1,3.35-2.07,6.58-2.95,9.34-2.14,6.69-7.82,10.52-15.57,10.52h-.6c-5.53-.13-8.47-2.58-10-4.6a10.35,10.35,0,0,1-1.57-9,10.24,10.24,0,0,1,6.2-6.9L1.6,50.09A10.75,10.75,0,0,1,6.55,35.72a10.85,10.85,0,0,1,4.74-1.12,10.87,10.87,0,0,1,9.64,6.06l1.46,3,.45-1.46a10.75,10.75,0,0,1,19-3.1A20.07,20.07,0,0,1,54.32,34.6a19.56,19.56,0,0,1,14.19,5.93V34.65a10.65,10.65,0,1,1,21.3,0V36.6a10.65,10.65,0,0,1,11.65-1.14,18.82,18.82,0,0,1,6.36-1.09,19.6,19.6,0,0,1,8.36,1.87,17.76,17.76,0,0,1,4.74,3.25q.14-.45.29-.89a9.91,9.91,0,0,1,14-5.59l-8.07-14a9.9,9.9,0,0,1,4.3-13.88,49.07,49.07,0,0,1,8.4-3.09A46.17,46.17,0,0,1,149.4.51h.06a9.87,9.87,0,0,1,9.89,9.9V26.55a9.76,9.76,0,0,1,8.36-4.65h0a9.93,9.93,0,0,1,6.54,2.47,32.58,32.58,0,0,1,8.4,11.56A9.91,9.91,0,0,1,176,49.49l.32.1a9.9,9.9,0,0,1,5.88,13.68,33.24,33.24,0,0,1-8.78,11.24A9.92,9.92,0,0,1,167.13,76.78Z" style="fill:#ccc"/><path d="M82.92,72.05a3.76,3.76,0,1,1-7.52,0V34.65a3.76,3.76,0,1,1,7.52,0Z" style="fill:#050505;fill-rule:evenodd"/><path d="M50.38,61.59H64.16a4,4,0,0,0,3.66-4.19h0c0-.07,0-.13,0-.19-.67-13.73-9.48-15.71-13.48-15.71-4.16,0-13.57,2.45-13.57,17.72.07,5.74,1.3,16.71,13.37,16.71,10.43,0,12.76-6,12.76-7.56,0-2.27-1.89-4.19-4-3.46-1.73.59-4.1,4-7.92,4-5.47,0-6.18-5-6.18-6.07C48.76,62,49.22,61.63,50.38,61.59Zm-1.63-6.72c.25-5.19,4.18-6,6-6s5.73.86,5.94,6.13c0,.28-.15.44-.31.44H49.07C48.89,55.4,48.72,55.22,48.74,54.87Z" style="fill:#050505"/><path d="M19.54,71.14,7.79,47.07a3.86,3.86,0,1,1,6.94-3.39l9.09,18.63,5.6-18.08a3.86,3.86,0,0,1,7.38,2.28S30.51,67.09,26.73,78.91c-1.25,3.91-4.53,5.85-9.44,5.73s-5.61-3-5.07-4.87a3.77,3.77,0,0,1,4-2.7C20.63,77.09,21.19,74.43,19.54,71.14Z" style="fill:#050505"/><path d="M128,64.09a2.09,2.09,0,1,1-2.11,2.1A2.09,2.09,0,0,1,128,64.09ZM128,68a1.79,1.79,0,1,0-1.77-1.78A1.76,1.76,0,0,0,128,68Zm-.78-3h.89c.58,0,.85.21.85.7a.63.63,0,0,1-.64.66l.7,1.07h-.37l-.66-1h-.43v1h-.34Zm.34,1.08h.42c.34,0,.65,0,.65-.4s-.29-.38-.55-.38h-.52Z" style="fill:#050505"/><path d="M120.05,57.11c0-4.93-.61-11.69-6.84-14.65a12.25,12.25,0,0,0-11.17.28A19.86,19.86,0,0,0,100.13,44a3.76,3.76,0,0,0-7.41.89V82.29a3.76,3.76,0,0,0,7.52,0V72.47a9.5,9.5,0,0,0,6.55,3.2C121.07,76,120.13,60.51,120.05,57.11ZM112.61,60c0,3,0,8.3-5.4,8.3s-5.4-5.33-5.4-8.3V57.25c0-3,0-8.3,5.4-8.3s5.4,5.33,5.4,8.3Z" style="fill:#050505"/><path d="M131.9,39.05,145,45.45a3,3,0,0,1-.59,5.62l-14.17,3.53A3,3,0,0,1,126.54,52a25.9,25.9,0,0,1,1.18-11.23A3,3,0,0,1,131.9,39.05Z" style="fill:#d32323;fill-rule:evenodd"/><path d="M137.15,66.07l9.77-10.85a3,3,0,0,1,5.24,2.12l-.51,14.6a3,3,0,0,1-3.51,2.86,26.14,26.14,0,0,1-10.46-4.23A3,3,0,0,1,137.15,66.07Z" style="fill:#d32323;fill-rule:evenodd"/><path d="M160.32,51.63l13.89,4.51A3,3,0,0,1,176,60.3,26.14,26.14,0,0,1,169,69.2a3,3,0,0,1-4.47-.73l-7.74-12.39A3,3,0,0,1,160.32,51.63Z" style="fill:#d32323;fill-rule:evenodd"/><path d="M174.44,42.77l-14,4a3,3,0,0,1-3.32-4.57l8.17-12.11a3,3,0,0,1,4.48-.58,25.9,25.9,0,0,1,6.64,9.14A3,3,0,0,1,174.44,42.77Z" style="fill:#d32323;fill-rule:evenodd"/><path d="M141.64,8.71a42,42,0,0,0-7.22,2.66,3,3,0,0,0-1.3,4.22l13.72,23.76a3,3,0,0,0,5.61-1.5V10.41a3,3,0,0,0-3.24-3A42,42,0,0,0,141.64,8.71Z" style="fill:#d32323;fill-rule:evenodd"/></svg>
